<?xml version="1.0" standalone="no"?>
<!DOCTYPE svg PUBLIC "-//W3C//DTD SVG 20010904//EN"
 "http://www.w3.org/TR/2001/REC-SVG-20010904/DTD/svg10.dtd">
<svg version="1.0" xmlns="http://www.w3.org/2000/svg"
 width="268.000000pt" height="123.000000pt" viewBox="0 0 268.000000 123.000000"
 preserveAspectRatio="xMidYMid meet">

<g transform="translate(0.000000,123.000000) scale(0.100000,-0.100000)"
fill="#000000" stroke="none">
<path d="M1950 940 l0 -50 -85 0 c-47 0 -85 -4 -85 -9 0 -5 -6 -11 -13 -13 -8
-2 -64 -61 -126 -133 l-112 -130 98 -6 c54 -4 179 -7 278 -7 l180 -1 110 150
c60 83 114 154 120 159 7 6 45 -40 105 -126 52 -74 98 -134 103 -134 5 0 3 9
-4 20 -8 10 -45 65 -84 121 -38 57 -80 115 -92 129 l-22 27 -103 -13 c-57 -7
-115 -16 -130 -18 -27 -5 -28 -4 -28 39 l0 45 -55 0 -55 0 0 -50z m12 -170
l71 0 -69 -70 -69 -70 -92 0 -93 0 0 72 c0 68 2 73 42 125 l42 55 49 -56 49
-56 70 0z"/>
<path d="M1750 735 l0 -55 50 0 50 0 0 55 0 55 -50 0 -50 0 0 -55z m90 5 l0
-40 -40 0 -40 0 0 40 0 40 40 0 40 0 0 -40z"/>
<path d="M1790 740 c0 -5 5 -10 10 -10 6 0 10 5 10 10 0 6 -4 10 -10 10 -5 0
-10 -4 -10 -10z"/>
<path d="M136 762 c-7 -11 -30 -127 -51 -257 -15 -90 -8 -105 47 -105 35 0 42
14 58 123 7 48 17 87 22 87 4 0 15 -18 24 -40 9 -22 21 -40 27 -40 6 0 24 12
39 27 l28 27 0 -35 c-1 -19 -7 -67 -14 -106 -7 -40 -10 -77 -7 -82 3 -5 28
-11 56 -12 l50 -4 7 35 c6 30 16 113 33 285 2 22 1 46 -3 52 -4 6 -30 15 -58
18 l-51 7 -31 -42 -31 -43 -20 45 c-11 25 -23 48 -28 51 -19 11 -91 18 -97 9z"/>
<path d="M2240 680 l0 -80 78 0 77 0 -3 80 -4 80 -74 0 -74 0 0 -80z m80 40
c0 -27 -3 -30 -30 -30 -27 0 -30 3 -30 30 0 27 3 30 30 30 27 0 30 -3 30 -30z
m60 0 c0 -25 -4 -30 -25 -30 -21 0 -25 5 -25 30 0 25 4 30 25 30 21 0 25 -5
25 -30z m-60 -70 c0 -27 -3 -30 -30 -30 -27 0 -30 3 -30 30 0 27 3 30 30 30
27 0 30 -3 30 -30z m60 0 c0 -25 -4 -30 -25 -30 -21 0 -25 5 -25 30 0 25 4 30
25 30 21 0 25 -5 25 -30z"/>
<path d="M556 669 c-59 -149 -116 -323 -108 -331 5 -5 33 -8 62 -6 l53 3 14
48 c10 35 19 47 32 47 42 0 51 -11 51 -61 0 -45 3 -51 27 -60 15 -5 38 -9 52
-7 24 3 27 8 32 63 4 33 7 115 8 182 l1 121 -47 16 c-27 9 -73 19 -104 23
l-55 5 -18 -43z m112 -117 c3 -28 0 -32 -21 -32 -24 0 -25 2 -14 35 13 42 31
41 35 -3z"/>
<path d="M856 662 c-7 -11 -56 -310 -56 -343 0 -24 5 -29 34 -34 67 -13 69
-10 88 110 10 61 24 137 31 170 8 33 12 65 10 71 -2 7 -24 17 -48 23 -52 13
-53 13 -59 3z"/>
<path d="M1041 623 c-38 -20 -71 -73 -71 -115 0 -46 22 -79 77 -114 83 -53 70
-62 -62 -42 -29 4 -42 -70 -16 -92 81 -70 223 -32 250 68 14 48 -7 93 -61 132
-99 71 -103 83 -21 78 l57 -3 15 38 c18 49 9 58 -71 64 -48 3 -71 0 -97 -14z"/>
<path d="M1363 583 c-58 -12 -113 -125 -113 -233 0 -45 6 -65 29 -102 16 -26
39 -51 50 -57 30 -16 118 -13 154 5 70 36 102 81 112 160 12 88 -27 174 -94
208 -30 16 -105 26 -138 19z m104 -125 c38 -35 23 -134 -22 -152 -74 -28 -121
45 -80 124 27 52 65 63 102 28z"/>
<path d="M1660 514 c-6 -14 -13 -44 -16 -67 -3 -23 -17 -95 -31 -161 -13 -65
-21 -122 -16 -126 11 -11 75 -16 89 -7 6 3 14 26 17 49 4 24 12 61 18 83 10
35 13 37 24 22 6 -9 24 -54 39 -101 25 -78 29 -84 57 -90 41 -8 61 -7 77 2 15
10 47 174 57 289 l7 82 -39 10 c-67 19 -66 20 -78 -79 -10 -90 -19 -91 -52 -4
-17 44 -33 86 -36 95 -5 15 -47 29 -88 29 -12 0 -23 -11 -29 -26z"/>
</g>
</svg>
